<svg width="40" height="40" viewBox="0 0 40 40" fill="none" xmlns="http://www.w3.org/2000/svg">
<path d="M40 20C40 8.9544 31.0456 0 20 0C8.9544 0 0 8.9544 0 20C0 29.3797 6.4572 37.2497 15.1684 39.411V26.1116H11.0444V20H15.1684V17.3666C15.1684 10.559 18.249 7.40408 24.9322 7.40408C26.1994 7.40408 28.3856 7.65216 29.28 7.90096V13.4413C28.8082 13.3916 27.9882 13.3666 26.9694 13.3666C23.69 13.3666 22.4228 14.6087 22.4228 17.8384V20H28.9556L27.8334 26.1116H22.4228V39.8534C32.3259 38.6575 40 30.2253 40 20Z" fill="#0866FF"/>
<path d="M27.8334 26.1116L28.9556 20L22.4231 20V17.8384C22.4231 14.6087 23.69 13.3666 26.9694 13.3666C27.9882 13.3666 28.8078 13.3913 29.28 13.441L29.28 7.90096C28.3856 7.65248 26.1993 7.40377 24.9321 7.40377C18.249 7.40377 15.1684 10.559 15.1684 17.3666V20H11.0444V26.1116H15.1684V39.411C16.7159 39.795 18.3337 40 20 40C20.8203 40 21.6287 39.9494 22.4231 39.8534V26.1116L27.8334 26.1116Z" fill="white"/>
</svg>
