<svg width="40" height="40" viewBox="0 0 40 40" fill="none" xmlns="http://www.w3.org/2000/svg">
<path d="M15.9999 25.8928V14.1071L26.3919 20L15.9999 25.8928ZM39.164 10.5441C38.704 8.85397 37.3488 7.52268 35.6278 7.07096C32.5082 6.25 19.9999 6.25 19.9999 6.25C19.9999 6.25 7.49166 6.25 4.37219 7.07096C2.6513 7.52268 1.29581 8.85397 0.835879 10.5441C0 13.6079 0 19.9999 0 19.9999C0 19.9999 0 26.3922 0.835879 29.4558C1.29581 31.1458 2.6513 32.4772 4.37219 32.9288C7.49166 33.75 19.9999 33.75 19.9999 33.75C19.9999 33.75 32.5082 33.75 35.6278 32.9288C37.3488 32.4772 38.704 31.1458 39.164 29.4558C40 26.3922 40 19.9999 40 19.9999C40 19.9999 40 13.6079 39.164 10.5441Z" fill="#CC181E"/>
<path d="M15.9999 25.8928V14.1071L26.3919 20L15.9999 25.8928Z" fill="white"/>
</svg>
