<svg width="192" height="193" viewBox="0 0 192 193" fill="none" xmlns="http://www.w3.org/2000/svg">
<path d="M58.0465 134.287H133.953V58.3798H58.0465V134.287ZM160.744 156.612L160.722 157.07C160.509 159.171 158.837 160.842 156.737 161.056L156.279 161.078H35.7209L35.2631 161.056C33.1626 160.842 31.4915 159.171 31.2776 157.07L31.2558 156.612V36.0542C31.2558 33.7428 33.0121 31.8401 35.2631 31.6109L35.7209 31.5891H156.279L156.737 31.6109C158.988 31.8401 160.744 33.7428 160.744 36.0542V156.612Z" fill="#403B3B"/>
<path d="M35.7209 13.7287C35.7209 11.2626 37.72 9.26355 40.1861 9.26355H44.6512C47.1172 9.26355 49.1163 11.2626 49.1163 13.7287V27.124H35.7209V13.7287Z" fill="#403B3B"/>
<path d="M53.5814 13.7287C53.5814 11.2626 55.5805 9.26355 58.0465 9.26355H62.5116C64.9776 9.26355 66.9767 11.2626 66.9767 13.7287V27.124H53.5814V13.7287Z" fill="#403B3B"/>
<path d="M71.4419 13.7287C71.4419 11.2626 73.441 9.26355 75.907 9.26355H80.3721C82.8381 9.26355 84.8372 11.2626 84.8372 13.7287V27.124H71.4419V13.7287Z" fill="#403B3B"/>
<path d="M89.3023 13.7287C89.3023 11.2626 91.3014 9.26355 93.7674 9.26355H98.2326C100.699 9.26355 102.698 11.2626 102.698 13.7287V27.124H89.3023V13.7287Z" fill="#403B3B"/>
<path d="M107.163 13.7287C107.163 11.2626 109.162 9.26355 111.628 9.26355H116.093C118.559 9.26355 120.558 11.2626 120.558 13.7287V27.124H107.163V13.7287Z" fill="#403B3B"/>
<path d="M125.023 13.7287C125.023 11.2626 127.022 9.26355 129.488 9.26355H133.953C136.42 9.26355 138.419 11.2626 138.419 13.7287V27.124H125.023V13.7287Z" fill="#403B3B"/>
<path d="M142.884 13.7287C142.884 11.2626 144.883 9.26355 147.349 9.26355H151.814C154.28 9.26355 156.279 11.2626 156.279 13.7287V27.124H142.884V13.7287Z" fill="#403B3B"/>
<path d="M40.1861 2.56587C40.1861 1.33286 41.1856 0.333313 42.4186 0.333313C43.6516 0.333313 44.6512 1.33286 44.6512 2.56587V9.26355H40.1861V2.56587Z" fill="#403B3B"/>
<path d="M58.0465 2.56587C58.0465 1.33286 59.0461 0.333313 60.2791 0.333313C61.5121 0.333313 62.5116 1.33286 62.5116 2.56587V9.26355H58.0465V2.56587Z" fill="#403B3B"/>
<path d="M75.907 2.56587C75.907 1.33286 76.9065 0.333313 78.1395 0.333313C79.3725 0.333313 80.3721 1.33286 80.3721 2.56587V9.26355H75.907V2.56587Z" fill="#403B3B"/>
<path d="M93.7674 2.56587C93.7674 1.33286 94.767 0.333313 96 0.333313C97.233 0.333313 98.2326 1.33286 98.2326 2.56587V9.26355H93.7674V2.56587Z" fill="#403B3B"/>
<path d="M111.628 2.56587C111.628 1.33286 112.627 0.333313 113.86 0.333313C115.093 0.333313 116.093 1.33286 116.093 2.56587V9.26355H111.628V2.56587Z" fill="#403B3B"/>
<path d="M129.488 2.56587C129.488 1.33286 130.488 0.333313 131.721 0.333313C132.954 0.333313 133.953 1.33286 133.953 2.56587V9.26355H129.488V2.56587Z" fill="#403B3B"/>
<path d="M147.349 2.56587C147.349 1.33286 148.348 0.333313 149.581 0.333313C150.814 0.333313 151.814 1.33286 151.814 2.56587V9.26355H147.349V2.56587Z" fill="#403B3B"/>
<path d="M35.7209 178.938C35.7209 181.404 37.72 183.403 40.1861 183.403H44.6512C47.1172 183.403 49.1163 181.404 49.1163 178.938V165.543H35.7209V178.938Z" fill="#403B3B"/>
<path d="M53.5814 178.938C53.5814 181.404 55.5805 183.403 58.0465 183.403H62.5116C64.9776 183.403 66.9767 181.404 66.9767 178.938V165.543H53.5814V178.938Z" fill="#403B3B"/>
<path d="M71.4419 178.938C71.4419 181.404 73.441 183.403 75.907 183.403H80.3721C82.8381 183.403 84.8372 181.404 84.8372 178.938V165.543H71.4419V178.938Z" fill="#403B3B"/>
<path d="M89.3023 178.938C89.3023 181.404 91.3014 183.403 93.7674 183.403H98.2326C100.699 183.403 102.698 181.404 102.698 178.938V165.543H89.3023V178.938Z" fill="#403B3B"/>
<path d="M107.163 178.938C107.163 181.404 109.162 183.403 111.628 183.403H116.093C118.559 183.403 120.558 181.404 120.558 178.938V165.543H107.163V178.938Z" fill="#403B3B"/>
<path d="M125.023 178.938C125.023 181.404 127.022 183.403 129.488 183.403H133.953C136.42 183.403 138.419 181.404 138.419 178.938V165.543H125.023V178.938Z" fill="#403B3B"/>
<path d="M142.884 178.938C142.884 181.404 144.883 183.403 147.349 183.403H151.814C154.28 183.403 156.279 181.404 156.279 178.938V165.543H142.884V178.938Z" fill="#403B3B"/>
<path d="M40.1861 190.101C40.1861 191.334 41.1856 192.333 42.4186 192.333C43.6516 192.333 44.6512 191.334 44.6512 190.101V183.403H40.1861V190.101Z" fill="#403B3B"/>
<path d="M58.0465 190.101C58.0465 191.334 59.0461 192.333 60.2791 192.333C61.5121 192.333 62.5116 191.334 62.5116 190.101V183.403H58.0465V190.101Z" fill="#403B3B"/>
<path d="M75.907 190.101C75.907 191.334 76.9065 192.333 78.1395 192.333C79.3725 192.333 80.3721 191.334 80.3721 190.101V183.403H75.907V190.101Z" fill="#403B3B"/>
<path d="M93.7674 190.101C93.7674 191.334 94.767 192.333 96 192.333C97.233 192.333 98.2326 191.334 98.2326 190.101V183.403H93.7674V190.101Z" fill="#403B3B"/>
<path d="M111.628 190.101C111.628 191.334 112.627 192.333 113.86 192.333C115.093 192.333 116.093 191.334 116.093 190.101V183.403H111.628V190.101Z" fill="#403B3B"/>
<path d="M129.488 190.101C129.488 191.334 130.488 192.333 131.721 192.333C132.954 192.333 133.953 191.334 133.953 190.101V183.403H129.488V190.101Z" fill="#403B3B"/>
<path d="M147.349 190.101C147.349 191.334 148.348 192.333 149.581 192.333C150.814 192.333 151.814 191.334 151.814 190.101V183.403H147.349V190.101Z" fill="#403B3B"/>
<path d="M178.605 36.0542C181.071 36.0542 183.07 38.0533 183.07 40.5194V44.9845C183.07 47.4505 181.071 49.4496 178.605 49.4496H165.209V36.0542L178.605 36.0542Z" fill="#403B3B"/>
<path d="M178.605 53.9147C181.071 53.9147 183.07 55.9138 183.07 58.3798V62.8449C183.07 65.311 181.071 67.3101 178.605 67.3101H165.209V53.9147H178.605Z" fill="#403B3B"/>
<path d="M178.605 71.7752C181.071 71.7752 183.07 73.7743 183.07 76.2403V80.7054C183.07 83.1714 181.071 85.1705 178.605 85.1705H165.209V71.7752H178.605Z" fill="#403B3B"/>
<path d="M178.605 89.6356C181.071 89.6356 183.07 91.6347 183.07 94.1008V98.5659C183.07 101.032 181.071 103.031 178.605 103.031H165.209V89.6356H178.605Z" fill="#403B3B"/>
<path d="M178.605 107.496C181.071 107.496 183.07 109.495 183.07 111.961V116.426C183.07 118.892 181.071 120.891 178.605 120.891H165.209V107.496H178.605Z" fill="#403B3B"/>
<path d="M178.605 125.357C181.071 125.357 183.07 127.356 183.07 129.822V134.287C183.07 136.753 181.071 138.752 178.605 138.752H165.209V125.357H178.605Z" fill="#403B3B"/>
<path d="M178.605 143.217C181.071 143.217 183.07 145.216 183.07 147.682V152.147C183.07 154.613 181.071 156.612 178.605 156.612H165.209V143.217H178.605Z" fill="#403B3B"/>
<path d="M189.767 40.5194C191 40.5194 192 41.5189 192 42.7519C192 43.9849 191 44.9845 189.767 44.9845H183.07V40.5194H189.767Z" fill="#403B3B"/>
<path d="M189.767 58.3798C191 58.3798 192 59.3794 192 60.6124C192 61.8454 191 62.8449 189.767 62.8449H183.07V58.3798H189.767Z" fill="#403B3B"/>
<path d="M189.767 76.2403C191 76.2403 192 77.2398 192 78.4729C192 79.7059 191 80.7054 189.767 80.7054H183.07V76.2403H189.767Z" fill="#403B3B"/>
<path d="M189.767 94.1008C191 94.1008 192 95.1003 192 96.3333C192 97.5663 191 98.5659 189.767 98.5659H183.07V94.1008H189.767Z" fill="#403B3B"/>
<path d="M189.767 111.961C191 111.961 192 112.961 192 114.194C192 115.427 191 116.426 189.767 116.426H183.07V111.961H189.767Z" fill="#403B3B"/>
<path d="M189.767 129.822C191 129.822 192 130.821 192 132.054C192 133.287 191 134.287 189.767 134.287H183.07V129.822H189.767Z" fill="#403B3B"/>
<path d="M189.767 147.682C191 147.682 192 148.682 192 149.915C192 151.148 191 152.147 189.767 152.147H183.07V147.682H189.767Z" fill="#403B3B"/>
<path d="M13.3953 36.0542C10.9293 36.0542 8.93023 38.0533 8.93023 40.5194V44.9845C8.93023 47.4505 10.9293 49.4496 13.3953 49.4496H26.7907V36.0542L13.3953 36.0542Z" fill="#403B3B"/>
<path d="M13.3953 53.9147C10.9293 53.9147 8.93023 55.9138 8.93023 58.3798V62.8449C8.93023 65.311 10.9293 67.3101 13.3954 67.3101H26.7907L26.7907 53.9147H13.3953Z" fill="#403B3B"/>
<path d="M13.3954 71.7752C10.9293 71.7752 8.93023 73.7743 8.93023 76.2403L8.93023 80.7054C8.93023 83.1714 10.9293 85.1705 13.3954 85.1705H26.7907V71.7752H13.3954Z" fill="#403B3B"/>
<path d="M13.3954 89.6356C10.9293 89.6356 8.93023 91.6347 8.93023 94.1008V98.5659C8.93023 101.032 10.9293 103.031 13.3954 103.031H26.7907V89.6356H13.3954Z" fill="#403B3B"/>
<path d="M13.3954 107.496C10.9293 107.496 8.93024 109.495 8.93024 111.961V116.426C8.93024 118.892 10.9293 120.891 13.3954 120.891H26.7907L26.7907 107.496H13.3954Z" fill="#403B3B"/>
<path d="M13.3954 125.357C10.9293 125.357 8.93024 127.356 8.93024 129.822V134.287C8.93024 136.753 10.9293 138.752 13.3954 138.752H26.7907V125.357H13.3954Z" fill="#403B3B"/>
<path d="M13.3954 143.217C10.9293 143.217 8.93024 145.216 8.93024 147.682V152.147C8.93024 154.613 10.9293 156.612 13.3954 156.612H26.7907V143.217H13.3954Z" fill="#403B3B"/>
<path d="M2.23256 40.5194C0.99955 40.5194 -5.38965e-08 41.5189 0 42.7519C5.38965e-08 43.9849 0.99955 44.9845 2.23256 44.9845H8.93023V40.5194H2.23256Z" fill="#403B3B"/>
<path d="M2.23256 58.3798C0.999551 58.3798 7.26809e-07 59.3794 7.80706e-07 60.6124C8.34602e-07 61.8454 0.999551 62.8449 2.23256 62.8449H8.93023V58.3798H2.23256Z" fill="#403B3B"/>
<path d="M2.23256 76.2403C0.999552 76.2403 1.50752e-06 77.2398 1.56141e-06 78.4729C1.61531e-06 79.7059 0.999552 80.7054 2.23256 80.7054H8.93023L8.93023 76.2403H2.23256Z" fill="#403B3B"/>
<path d="M2.23256 94.1008C0.999553 94.1008 2.28822e-06 95.1003 2.34212e-06 96.3333C2.39601e-06 97.5663 0.999553 98.5659 2.23256 98.5659H8.93023V94.1008H2.23256Z" fill="#403B3B"/>
<path d="M2.23256 111.961C0.999553 111.961 3.06893e-06 112.961 3.12282e-06 114.194C3.17672e-06 115.427 0.999554 116.426 2.23256 116.426H8.93024V111.961H2.23256Z" fill="#403B3B"/>
<path d="M2.23256 129.822C0.999554 129.822 3.84963e-06 130.821 3.90353e-06 132.054C3.95743e-06 133.287 0.999554 134.287 2.23256 134.287H8.93024V129.822H2.23256Z" fill="#403B3B"/>
<path d="M2.23256 147.682C0.999555 147.682 4.63034e-06 148.682 4.68423e-06 149.915C4.73813e-06 151.148 0.999555 152.147 2.23256 152.147H8.93024V147.682H2.23256Z" fill="#403B3B"/>
</svg>
