<svg width="384" height="153" viewBox="0 0 384 153" fill="none" xmlns="http://www.w3.org/2000/svg">
<path d="M21.6949 0.293701V96.2485C21.6949 99.2481 24.1231 101.68 27.1185 101.68H35.7964V146.942C35.7964 149.941 33.3682 152.373 30.3729 152.373H5.42356C2.42823 152.373 4.91338e-05 149.941 0 146.942V0.293701H21.6949Z" fill="#403B3B"/>
<path d="M67.2539 0.293701V96.2485C67.2539 99.2482 69.6823 101.68 72.6777 101.68H74.4855V146.942C74.4854 149.941 72.0573 152.373 69.0619 152.373H44.1126C41.1173 152.373 38.6891 149.941 38.6891 146.942V101.68H40.1354C43.1308 101.68 45.559 99.2482 45.559 96.2485V0.293701H67.2539Z" fill="#403B3B"/>
<path d="M91.48 0.293701V96.2485C91.48 99.2481 89.0518 101.68 86.0564 101.68H77.3785V146.942C77.3785 149.941 79.8067 152.373 82.802 152.373H107.751C110.747 152.373 113.175 149.941 113.175 146.942V0.293701H91.48Z" fill="#403B3B"/>
<path d="M137.762 0.293701V96.2485C137.762 99.2481 140.191 101.68 143.186 101.68H151.864V146.942C151.864 149.941 149.436 152.373 146.44 152.373H121.491C118.496 152.373 116.068 149.941 116.068 146.942V0.293701H137.762Z" fill="#403B3B"/>
<path d="M180.429 0.293701V96.2485C180.429 99.2482 182.857 101.68 185.853 101.68H190.553V146.942C190.553 149.941 188.125 152.373 185.129 152.373H160.18C157.185 152.373 154.757 149.941 154.757 146.942V101.68H156.203C159.198 101.68 161.626 99.2482 161.626 96.2485V0.293701H180.429Z" fill="#403B3B"/>
<path d="M203.932 0.293701V96.2485C203.932 99.2482 201.503 101.68 198.508 101.68H193.807V146.942C193.807 149.941 196.236 152.373 199.231 152.373H224.18C227.176 152.373 229.604 149.941 229.604 146.942V101.68H228.158C225.162 101.68 222.734 99.2482 222.734 96.2485V0.293701H203.932Z" fill="#403B3B"/>
<path d="M246.237 0.293701V96.2485C246.237 99.2481 243.808 101.68 240.813 101.68H232.135V146.942C232.135 149.941 234.563 152.373 237.559 152.373H262.508C265.503 152.373 267.931 149.941 267.931 146.942V0.293701H246.237Z" fill="#403B3B"/>
<path d="M23.5026 0.293701H43.7512V94.438C43.7512 97.4377 41.3229 99.8694 38.3275 99.8694H28.9264C25.9309 99.8694 23.5026 97.4377 23.5026 94.438V0.293701Z" fill="#403B3B"/>
<path d="M69.0619 0.293701H89.3105V94.438C89.3105 97.4377 86.8822 99.8694 83.8867 99.8694H74.4856C71.4902 99.8694 69.0619 97.4377 69.0619 94.438V0.293701Z" fill="#403B3B"/>
<path d="M139.57 0.293701H159.819V94.438C159.819 97.4377 157.39 99.8694 154.395 99.8694H144.994C141.998 99.8694 139.57 97.4377 139.57 94.438V0.293701Z" fill="#403B3B"/>
<path d="M181.875 0.293701H202.124V94.438C202.124 97.4377 199.696 99.8694 196.7 99.8694H187.299C184.304 99.8694 181.875 97.4377 181.875 94.438V0.293701Z" fill="#403B3B"/>
<path d="M224.542 0.293701H244.79V94.438C244.79 97.4377 242.362 99.8694 239.367 99.8694H229.965C226.97 99.8694 224.542 97.4377 224.542 94.438V0.293701Z" fill="#403B3B"/>
<path d="M292.52 0.293701V96.2485C292.52 99.2481 294.948 101.68 297.944 101.68H306.622V146.942C306.621 149.941 304.193 152.373 301.198 152.373H276.249C273.253 152.373 270.825 149.941 270.825 146.942V0.293701H292.52Z" fill="#403B3B"/>
<path d="M338.079 0.293701V96.2485C338.079 99.2482 340.507 101.68 343.503 101.68H345.311V146.942C345.311 149.941 342.882 152.373 339.887 152.373H314.938C311.942 152.373 309.514 149.941 309.514 146.942V101.68H310.961C313.956 101.68 316.384 99.2482 316.384 96.2485V0.293701H338.079Z" fill="#403B3B"/>
<path d="M362.305 0.293701V96.2485C362.305 99.2481 359.877 101.68 356.882 101.68H348.204V146.942C348.204 149.941 350.632 152.373 353.627 152.373H378.576C381.572 152.373 384 149.941 384 146.942V0.293701H362.305Z" fill="#403B3B"/>
<path d="M294.328 0.293701H314.576V94.438C314.576 97.4377 312.148 99.8694 309.153 99.8694H299.751C296.756 99.8694 294.328 97.4377 294.328 94.438V0.293701Z" fill="#403B3B"/>
<path d="M339.887 0.293701H360.136V94.438C360.136 97.4377 357.707 99.8694 354.712 99.8694H345.311C342.315 99.8694 339.887 97.4377 339.887 94.438V0.293701Z" fill="#403B3B"/>
</svg>
