<svg width="32" height="32" viewBox="0 0 32 32" fill="none" xmlns="http://www.w3.org/2000/svg">
<path d="M32 16.0587C32 7.18974 24.8365 -0.00012207 16 -0.00012207C7.16352 -0.00012207 0 7.18974 0 16.0587C0 23.5901 5.16576 29.9092 12.1347 31.6446V20.966H8.83552V16.0587H12.1347V13.9442C12.1347 8.47817 14.5992 5.94492 19.9457 5.94492C20.9595 5.94492 22.7085 6.14412 23.424 6.34389V10.7924C23.0465 10.7526 22.3905 10.7324 21.5755 10.7324C18.952 10.7324 17.9382 11.7298 17.9382 14.3231V16.0587H23.1645L22.2668 20.966H17.9382V31.9999C25.8607 31.0396 32 24.269 32 16.0587Z" fill="#8D7C7C"/>
</svg>
