<svg width="32" height="32" viewBox="0 0 32 32" fill="none" xmlns="http://www.w3.org/2000/svg">
<path d="M12.7999 20.7142V11.2857L21.1135 16L12.7999 20.7142ZM31.3312 8.43531C30.9632 7.08317 29.879 6.01815 28.5022 5.65677C26.0066 5 15.9999 5 15.9999 5C15.9999 5 5.99333 5 3.49776 5.65677C2.12104 6.01815 1.03665 7.08317 0.668703 8.43531C0 10.8863 0 15.9999 0 15.9999C0 15.9999 0 21.1137 0.668703 23.5646C1.03665 24.9166 2.12104 25.9818 3.49776 26.343C5.99333 27 15.9999 27 15.9999 27C15.9999 27 26.0066 27 28.5022 26.343C29.879 25.9818 30.9632 24.9166 31.3312 23.5646C32 21.1137 32 15.9999 32 15.9999C32 15.9999 32 10.8863 31.3312 8.43531Z" fill="#8D7C7C"/>
</svg>
