<svg width="480" height="334" viewBox="0 0 480 334" fill="none" xmlns="http://www.w3.org/2000/svg">
<rect x="0.5" y="0.833313" width="479" height="332" rx="5.5" fill="url(#paint0_linear_28_261)"/>
<rect x="0.5" y="0.833313" width="479" height="332" rx="5.5" stroke="#262626"/>
<path d="M69.6949 68.2937V164.248C69.6949 167.248 72.1231 169.68 75.1185 169.68H83.7964V214.942C83.7964 217.941 81.3682 220.373 78.3729 220.373H53.4236C50.4282 220.373 48 217.941 48 214.942V68.2937H69.6949Z" fill="#403B3B"/>
<path d="M115.254 68.2937V164.248C115.254 167.248 117.682 169.68 120.678 169.68H122.485V214.942C122.485 217.941 120.057 220.373 117.062 220.373H92.1126C89.1173 220.373 86.6891 217.941 86.6891 214.942V169.68H88.1354C91.1308 169.68 93.559 167.248 93.559 164.248V68.2937H115.254Z" fill="#403B3B"/>
<path d="M139.48 68.2937V164.248C139.48 167.248 137.052 169.68 134.056 169.68H125.378V214.942C125.379 217.941 127.807 220.373 130.802 220.373H155.751C158.747 220.373 161.175 217.941 161.175 214.942V68.2937H139.48Z" fill="#403B3B"/>
<path d="M185.762 68.2937V164.248C185.762 167.248 188.191 169.68 191.186 169.68H199.864V214.942C199.864 217.941 197.436 220.373 194.44 220.373H169.491C166.496 220.373 164.068 217.941 164.068 214.942V68.2937H185.762Z" fill="#403B3B"/>
<path d="M228.429 68.2937V164.248C228.429 167.248 230.857 169.68 233.853 169.68H238.553V214.942C238.553 217.941 236.125 220.373 233.129 220.373H208.18C205.185 220.373 202.757 217.941 202.757 214.942V169.68H204.203C207.198 169.68 209.626 167.248 209.626 164.248V68.2937H228.429Z" fill="#403B3B"/>
<path d="M251.932 68.2937V164.248C251.932 167.248 249.503 169.68 246.508 169.68H241.807V214.942C241.807 217.941 244.236 220.373 247.231 220.373H272.18C275.176 220.373 277.604 217.941 277.604 214.942V169.68H276.158C273.162 169.68 270.734 167.248 270.734 164.248V68.2937H251.932Z" fill="#403B3B"/>
<path d="M294.237 68.2937V164.248C294.237 167.248 291.808 169.68 288.813 169.68H280.135V214.942C280.135 217.941 282.563 220.373 285.559 220.373H310.508C313.503 220.373 315.931 217.941 315.931 214.942V68.2937H294.237Z" fill="#403B3B"/>
<path d="M71.5026 68.2937H91.7512V162.438C91.7512 165.438 89.3229 167.869 86.3275 167.869H76.9264C73.9309 167.869 71.5026 165.438 71.5026 162.438V68.2937Z" fill="#403B3B"/>
<path d="M117.062 68.2937H137.31V162.438C137.31 165.438 134.882 167.869 131.887 167.869H122.486C119.49 167.869 117.062 165.438 117.062 162.438V68.2937Z" fill="#403B3B"/>
<path d="M187.57 68.2937H207.819V162.438C207.819 165.438 205.39 167.869 202.395 167.869H192.994C189.998 167.869 187.57 165.438 187.57 162.438V68.2937Z" fill="#403B3B"/>
<path d="M229.875 68.2937H250.124V162.438C250.124 165.438 247.696 167.869 244.7 167.869H235.299C232.304 167.869 229.875 165.438 229.875 162.438V68.2937Z" fill="#403B3B"/>
<path d="M272.542 68.2937H292.79V162.438C292.79 165.438 290.362 167.869 287.367 167.869H277.965C274.97 167.869 272.542 165.438 272.542 162.438V68.2937Z" fill="#403B3B"/>
<path d="M340.52 68.2937V164.248C340.52 167.248 342.948 169.68 345.944 169.68H354.622V214.942C354.621 217.941 352.193 220.373 349.198 220.373H324.249C321.253 220.373 318.825 217.941 318.825 214.942V68.2937H340.52Z" fill="#403B3B"/>
<path d="M386.079 68.2937V164.248C386.079 167.248 388.507 169.68 391.503 169.68H393.311V214.942C393.311 217.941 390.882 220.373 387.887 220.373H362.938C359.942 220.373 357.514 217.941 357.514 214.942V169.68H358.961C361.956 169.68 364.384 167.248 364.384 164.248V68.2937H386.079Z" fill="#403B3B"/>
<path d="M410.305 68.2937V164.248C410.305 167.248 407.877 169.68 404.882 169.68H396.204V214.942C396.204 217.941 398.632 220.373 401.627 220.373H426.576C429.572 220.373 432 217.941 432 214.942V68.2937H410.305Z" fill="#403B3B"/>
<path d="M342.328 68.2937H362.576V162.438C362.576 165.438 360.148 167.869 357.153 167.869H347.751C344.756 167.869 342.328 165.438 342.328 162.438V68.2937Z" fill="#403B3B"/>
<path d="M387.887 68.2937H408.136V162.438C408.136 165.438 405.707 167.869 402.712 167.869H393.311C390.315 167.869 387.887 165.438 387.887 162.438V68.2937Z" fill="#403B3B"/>
<path d="M206.905 293.879H210.775L215.956 306.526H216.161L221.343 293.879H225.212V311.333H222.178V299.342H222.016L217.192 311.282H214.925L210.101 299.316H209.939V311.333H206.905V293.879ZM236.863 305.828V298.242H239.948V311.333H236.956V309.007H236.82C236.525 309.74 236.039 310.339 235.363 310.805C234.692 311.271 233.865 311.504 232.882 311.504C232.025 311.504 231.266 311.313 230.607 310.933C229.953 310.546 229.442 309.987 229.073 309.254C228.703 308.515 228.519 307.623 228.519 306.578V298.242H231.604V306.1C231.604 306.93 231.831 307.589 232.286 308.078C232.74 308.566 233.337 308.811 234.076 308.811C234.53 308.811 234.971 308.7 235.397 308.478C235.823 308.257 236.172 307.927 236.445 307.49C236.723 307.046 236.863 306.492 236.863 305.828ZM253.467 301.703L250.654 302.009C250.575 301.725 250.436 301.458 250.237 301.208C250.044 300.958 249.782 300.757 249.453 300.603C249.123 300.45 248.72 300.373 248.243 300.373C247.6 300.373 247.061 300.512 246.623 300.791C246.191 301.069 245.978 301.43 245.984 301.873C245.978 302.254 246.118 302.563 246.402 302.802C246.691 303.041 247.169 303.237 247.833 303.39L250.066 303.867C251.305 304.134 252.225 304.558 252.828 305.137C253.436 305.717 253.743 306.475 253.748 307.413C253.743 308.237 253.501 308.964 253.024 309.595C252.552 310.22 251.896 310.708 251.055 311.061C250.214 311.413 249.248 311.589 248.157 311.589C246.555 311.589 245.265 311.254 244.288 310.583C243.311 309.907 242.728 308.967 242.541 307.762L245.549 307.473C245.686 308.063 245.975 308.509 246.419 308.811C246.862 309.112 247.439 309.262 248.149 309.262C248.882 309.262 249.47 309.112 249.913 308.811C250.362 308.509 250.586 308.137 250.586 307.694C250.586 307.319 250.441 307.009 250.152 306.765C249.868 306.521 249.424 306.333 248.822 306.203L246.589 305.734C245.333 305.473 244.404 305.032 243.802 304.413C243.2 303.788 242.902 302.998 242.907 302.044C242.902 301.237 243.12 300.538 243.564 299.947C244.012 299.35 244.635 298.89 245.43 298.566C246.231 298.237 247.154 298.072 248.2 298.072C249.734 298.072 250.941 298.399 251.822 299.052C252.708 299.705 253.257 300.589 253.467 301.703ZM256.292 311.333V298.242H259.377V311.333H256.292ZM257.843 296.384C257.355 296.384 256.934 296.223 256.582 295.899C256.23 295.569 256.054 295.174 256.054 294.714C256.054 294.248 256.23 293.853 256.582 293.529C256.934 293.2 257.355 293.035 257.843 293.035C258.338 293.035 258.758 293.2 259.105 293.529C259.457 293.853 259.633 294.248 259.633 294.714C259.633 295.174 259.457 295.569 259.105 295.899C258.758 296.223 258.338 296.384 257.843 296.384ZM268.26 311.589C266.953 311.589 265.831 311.302 264.894 310.728C263.962 310.154 263.243 309.362 262.738 308.35C262.238 307.333 261.988 306.163 261.988 304.839C261.988 303.509 262.243 302.336 262.755 301.319C263.266 300.296 263.988 299.501 264.919 298.933C265.857 298.359 266.965 298.072 268.243 298.072C269.306 298.072 270.246 298.268 271.064 298.66C271.888 299.046 272.544 299.595 273.033 300.305C273.522 301.009 273.8 301.833 273.868 302.776H270.919C270.8 302.146 270.516 301.62 270.067 301.2C269.624 300.774 269.03 300.561 268.286 300.561C267.655 300.561 267.101 300.731 266.624 301.072C266.147 301.407 265.775 301.89 265.507 302.521C265.246 303.151 265.115 303.907 265.115 304.788C265.115 305.68 265.246 306.447 265.507 307.089C265.769 307.725 266.135 308.217 266.607 308.563C267.084 308.904 267.644 309.075 268.286 309.075C268.74 309.075 269.147 308.99 269.505 308.819C269.868 308.643 270.172 308.39 270.417 308.061C270.661 307.731 270.828 307.33 270.919 306.859H273.868C273.794 307.785 273.522 308.606 273.05 309.322C272.578 310.032 271.936 310.589 271.124 310.992C270.311 311.39 269.357 311.589 268.26 311.589Z" fill="#FAF3F3"/>
<defs>
<linearGradient id="paint0_linear_28_261" x1="0" y1="0.333313" x2="480" y2="333.333" gradientUnits="userSpaceOnUse">
<stop stop-color="#211D1D"/>
<stop offset="1" stop-color="#2F2B2B"/>
</linearGradient>
</defs>
</svg>
