<svg width="480" height="334" viewBox="0 0 480 334" fill="none" xmlns="http://www.w3.org/2000/svg">
<rect x="0.5" y="0.833313" width="479" height="332" rx="5.5" fill="url(#paint0_linear_28_256)"/>
<rect x="0.5" y="0.833313" width="479" height="332" rx="5.5" stroke="#262626"/>
<path d="M202.047 182.287H277.953V106.38H202.047V182.287ZM304.744 204.612L304.722 205.07C304.509 207.171 302.837 208.842 300.737 209.056L300.279 209.078H179.721L179.263 209.056C177.163 208.842 175.491 207.171 175.278 205.07L175.256 204.612V84.0542C175.256 81.7428 177.012 79.8401 179.263 79.6109L179.721 79.5891H300.279L300.737 79.6109C302.988 79.8401 304.744 81.7428 304.744 84.0542V204.612Z" fill="#403B3B"/>
<path d="M179.721 61.7287C179.721 59.2626 181.72 57.2635 184.186 57.2635H188.651C191.117 57.2635 193.116 59.2626 193.116 61.7287V75.124H179.721V61.7287Z" fill="#403B3B"/>
<path d="M197.581 61.7287C197.581 59.2626 199.58 57.2635 202.047 57.2635H206.512C208.978 57.2635 210.977 59.2626 210.977 61.7287V75.124H197.581V61.7287Z" fill="#403B3B"/>
<path d="M215.442 61.7287C215.442 59.2626 217.441 57.2635 219.907 57.2635H224.372C226.838 57.2635 228.837 59.2626 228.837 61.7287V75.124H215.442V61.7287Z" fill="#403B3B"/>
<path d="M233.302 61.7287C233.302 59.2626 235.301 57.2635 237.767 57.2635H242.233C244.699 57.2635 246.698 59.2626 246.698 61.7287V75.124H233.302V61.7287Z" fill="#403B3B"/>
<path d="M251.163 61.7287C251.163 59.2626 253.162 57.2635 255.628 57.2635H260.093C262.559 57.2635 264.558 59.2626 264.558 61.7287V75.124H251.163V61.7287Z" fill="#403B3B"/>
<path d="M269.023 61.7287C269.023 59.2626 271.022 57.2635 273.488 57.2635H277.953C280.42 57.2635 282.419 59.2626 282.419 61.7287V75.124H269.023V61.7287Z" fill="#403B3B"/>
<path d="M286.884 61.7287C286.884 59.2626 288.883 57.2635 291.349 57.2635H295.814C298.28 57.2635 300.279 59.2626 300.279 61.7287V75.124H286.884V61.7287Z" fill="#403B3B"/>
<path d="M184.186 50.5659C184.186 49.3329 185.186 48.3333 186.419 48.3333C187.652 48.3333 188.651 49.3329 188.651 50.5659V57.2635H184.186V50.5659Z" fill="#403B3B"/>
<path d="M202.047 50.5659C202.047 49.3329 203.046 48.3333 204.279 48.3333C205.512 48.3333 206.512 49.3329 206.512 50.5659V57.2635H202.047V50.5659Z" fill="#403B3B"/>
<path d="M219.907 50.5659C219.907 49.3329 220.907 48.3333 222.14 48.3333C223.373 48.3333 224.372 49.3329 224.372 50.5659V57.2635H219.907V50.5659Z" fill="#403B3B"/>
<path d="M237.767 50.5659C237.767 49.3329 238.767 48.3333 240 48.3333C241.233 48.3333 242.233 49.3329 242.233 50.5659V57.2635H237.767V50.5659Z" fill="#403B3B"/>
<path d="M255.628 50.5659C255.628 49.3329 256.627 48.3333 257.86 48.3333C259.093 48.3333 260.093 49.3329 260.093 50.5659V57.2635H255.628V50.5659Z" fill="#403B3B"/>
<path d="M273.488 50.5659C273.488 49.3329 274.488 48.3333 275.721 48.3333C276.954 48.3333 277.953 49.3329 277.953 50.5659V57.2635H273.488V50.5659Z" fill="#403B3B"/>
<path d="M291.349 50.5659C291.349 49.3329 292.348 48.3333 293.581 48.3333C294.814 48.3333 295.814 49.3329 295.814 50.5659V57.2635H291.349V50.5659Z" fill="#403B3B"/>
<path d="M179.721 226.938C179.721 229.404 181.72 231.403 184.186 231.403H188.651C191.117 231.403 193.116 229.404 193.116 226.938V213.543H179.721V226.938Z" fill="#403B3B"/>
<path d="M197.581 226.938C197.581 229.404 199.58 231.403 202.047 231.403H206.512C208.978 231.403 210.977 229.404 210.977 226.938V213.543H197.581V226.938Z" fill="#403B3B"/>
<path d="M215.442 226.938C215.442 229.404 217.441 231.403 219.907 231.403H224.372C226.838 231.403 228.837 229.404 228.837 226.938V213.543H215.442V226.938Z" fill="#403B3B"/>
<path d="M233.302 226.938C233.302 229.404 235.301 231.403 237.767 231.403H242.233C244.699 231.403 246.698 229.404 246.698 226.938V213.543H233.302V226.938Z" fill="#403B3B"/>
<path d="M251.163 226.938C251.163 229.404 253.162 231.403 255.628 231.403H260.093C262.559 231.403 264.558 229.404 264.558 226.938V213.543H251.163V226.938Z" fill="#403B3B"/>
<path d="M269.023 226.938C269.023 229.404 271.022 231.403 273.488 231.403H277.953C280.42 231.403 282.419 229.404 282.419 226.938V213.543H269.023V226.938Z" fill="#403B3B"/>
<path d="M286.884 226.938C286.884 229.404 288.883 231.403 291.349 231.403H295.814C298.28 231.403 300.279 229.404 300.279 226.938V213.543H286.884V226.938Z" fill="#403B3B"/>
<path d="M184.186 238.101C184.186 239.334 185.186 240.333 186.419 240.333C187.652 240.333 188.651 239.334 188.651 238.101V231.403H184.186V238.101Z" fill="#403B3B"/>
<path d="M202.047 238.101C202.047 239.334 203.046 240.333 204.279 240.333C205.512 240.333 206.512 239.334 206.512 238.101V231.403H202.047V238.101Z" fill="#403B3B"/>
<path d="M219.907 238.101C219.907 239.334 220.907 240.333 222.14 240.333C223.373 240.333 224.372 239.334 224.372 238.101V231.403H219.907V238.101Z" fill="#403B3B"/>
<path d="M237.767 238.101C237.767 239.334 238.767 240.333 240 240.333C241.233 240.333 242.233 239.334 242.233 238.101V231.403H237.767V238.101Z" fill="#403B3B"/>
<path d="M255.628 238.101C255.628 239.334 256.627 240.333 257.86 240.333C259.093 240.333 260.093 239.334 260.093 238.101V231.403H255.628V238.101Z" fill="#403B3B"/>
<path d="M273.488 238.101C273.488 239.334 274.488 240.333 275.721 240.333C276.954 240.333 277.953 239.334 277.953 238.101V231.403H273.488V238.101Z" fill="#403B3B"/>
<path d="M291.349 238.101C291.349 239.334 292.348 240.333 293.581 240.333C294.814 240.333 295.814 239.334 295.814 238.101V231.403H291.349V238.101Z" fill="#403B3B"/>
<path d="M322.605 84.0542C325.071 84.0542 327.07 86.0533 327.07 88.5194V92.9845C327.07 95.4505 325.071 97.4496 322.605 97.4496H309.209V84.0542L322.605 84.0542Z" fill="#403B3B"/>
<path d="M322.605 101.915C325.071 101.915 327.07 103.914 327.07 106.38V110.845C327.07 113.311 325.071 115.31 322.605 115.31H309.209V101.915H322.605Z" fill="#403B3B"/>
<path d="M322.605 119.775C325.071 119.775 327.07 121.774 327.07 124.24V128.705C327.07 131.171 325.071 133.171 322.605 133.171H309.209V119.775H322.605Z" fill="#403B3B"/>
<path d="M322.605 137.636C325.071 137.636 327.07 139.635 327.07 142.101V146.566C327.07 149.032 325.071 151.031 322.605 151.031H309.209V137.636H322.605Z" fill="#403B3B"/>
<path d="M322.605 155.496C325.071 155.496 327.07 157.495 327.07 159.961V164.426C327.07 166.892 325.071 168.891 322.605 168.891H309.209V155.496H322.605Z" fill="#403B3B"/>
<path d="M322.605 173.357C325.071 173.357 327.07 175.356 327.07 177.822V182.287C327.07 184.753 325.071 186.752 322.605 186.752H309.209V173.357H322.605Z" fill="#403B3B"/>
<path d="M322.605 191.217C325.071 191.217 327.07 193.216 327.07 195.682V200.147C327.07 202.613 325.071 204.612 322.605 204.612H309.209V191.217H322.605Z" fill="#403B3B"/>
<path d="M333.767 88.5194C335 88.5194 336 89.5189 336 90.7519C336 91.9849 335 92.9845 333.767 92.9845H327.07V88.5194H333.767Z" fill="#403B3B"/>
<path d="M333.767 106.38C335 106.38 336 107.379 336 108.612C336 109.845 335 110.845 333.767 110.845H327.07V106.38H333.767Z" fill="#403B3B"/>
<path d="M333.767 124.24C335 124.24 336 125.24 336 126.473C336 127.706 335 128.705 333.767 128.705H327.07V124.24H333.767Z" fill="#403B3B"/>
<path d="M333.767 142.101C335 142.101 336 143.1 336 144.333C336 145.566 335 146.566 333.767 146.566H327.07V142.101H333.767Z" fill="#403B3B"/>
<path d="M333.767 159.961C335 159.961 336 160.961 336 162.194C336 163.427 335 164.426 333.767 164.426H327.07V159.961H333.767Z" fill="#403B3B"/>
<path d="M333.767 177.822C335 177.822 336 178.821 336 180.054C336 181.287 335 182.287 333.767 182.287H327.07V177.822H333.767Z" fill="#403B3B"/>
<path d="M333.767 195.682C335 195.682 336 196.682 336 197.915C336 199.148 335 200.147 333.767 200.147H327.07V195.682H333.767Z" fill="#403B3B"/>
<path d="M157.395 84.0542C154.929 84.0542 152.93 86.0533 152.93 88.5194V92.9845C152.93 95.4505 154.929 97.4496 157.395 97.4496H170.791V84.0542L157.395 84.0542Z" fill="#403B3B"/>
<path d="M157.395 101.915C154.929 101.915 152.93 103.914 152.93 106.38V110.845C152.93 113.311 154.929 115.31 157.395 115.31H170.791L170.791 101.915H157.395Z" fill="#403B3B"/>
<path d="M157.395 119.775C154.929 119.775 152.93 121.774 152.93 124.24L152.93 128.705C152.93 131.171 154.929 133.171 157.395 133.171H170.791V119.775H157.395Z" fill="#403B3B"/>
<path d="M157.395 137.636C154.929 137.636 152.93 139.635 152.93 142.101V146.566C152.93 149.032 154.929 151.031 157.395 151.031H170.791V137.636H157.395Z" fill="#403B3B"/>
<path d="M157.395 155.496C154.929 155.496 152.93 157.495 152.93 159.961V164.426C152.93 166.892 154.929 168.891 157.395 168.891H170.791L170.791 155.496H157.395Z" fill="#403B3B"/>
<path d="M157.395 173.357C154.929 173.357 152.93 175.356 152.93 177.822V182.287C152.93 184.753 154.929 186.752 157.395 186.752H170.791V173.357H157.395Z" fill="#403B3B"/>
<path d="M157.395 191.217C154.929 191.217 152.93 193.216 152.93 195.682V200.147C152.93 202.613 154.929 204.612 157.395 204.612H170.791V191.217H157.395Z" fill="#403B3B"/>
<path d="M146.233 88.5194C145 88.5194 144 89.5189 144 90.7519C144 91.9849 145 92.9845 146.233 92.9845H152.93V88.5194H146.233Z" fill="#403B3B"/>
<path d="M146.233 106.38C145 106.38 144 107.379 144 108.612C144 109.845 145 110.845 146.233 110.845H152.93V106.38H146.233Z" fill="#403B3B"/>
<path d="M146.233 124.24C145 124.24 144 125.24 144 126.473C144 127.706 145 128.705 146.233 128.705H152.93L152.93 124.24H146.233Z" fill="#403B3B"/>
<path d="M146.233 142.101C145 142.101 144 143.1 144 144.333C144 145.566 145 146.566 146.233 146.566H152.93V142.101H146.233Z" fill="#403B3B"/>
<path d="M146.233 159.961C145 159.961 144 160.961 144 162.194C144 163.427 145 164.426 146.233 164.426H152.93V159.961H146.233Z" fill="#403B3B"/>
<path d="M146.233 177.822C145 177.822 144 178.821 144 180.054C144 181.287 145 182.287 146.233 182.287H152.93V177.822H146.233Z" fill="#403B3B"/>
<path d="M146.233 195.682C145 195.682 144 196.682 144 197.915C144 199.148 145 200.147 146.233 200.147H152.93V195.682H146.233Z" fill="#403B3B"/>
<path d="M193.839 311.333V293.879H200.384C201.725 293.879 202.85 294.129 203.759 294.629C204.674 295.129 205.364 295.816 205.83 296.691C206.302 297.561 206.538 298.549 206.538 299.657C206.538 300.776 206.302 301.771 205.83 302.64C205.359 303.509 204.663 304.194 203.742 304.694C202.822 305.188 201.688 305.436 200.342 305.436H196.004V302.836H199.915C200.7 302.836 201.342 302.7 201.842 302.427C202.342 302.154 202.711 301.779 202.95 301.302C203.194 300.825 203.316 300.276 203.316 299.657C203.316 299.038 203.194 298.492 202.95 298.021C202.711 297.549 202.339 297.183 201.833 296.921C201.333 296.654 200.688 296.521 199.898 296.521H197.001V311.333H193.839ZM209.148 311.333V298.242H212.139V300.424H212.276C212.514 299.669 212.923 299.086 213.503 298.677C214.082 298.262 214.75 298.055 215.506 298.055C215.858 298.055 216.182 298.098 216.477 298.183C216.773 298.268 217.034 298.384 217.261 298.532L216.307 301.089C216.142 301.009 215.96 300.944 215.761 300.893C215.563 300.842 215.338 300.816 215.088 300.816C214.554 300.816 214.071 300.936 213.639 301.174C213.207 301.413 212.864 301.745 212.608 302.171C212.358 302.592 212.233 303.08 212.233 303.637V311.333H209.148ZM224.139 311.589C222.861 311.589 221.753 311.308 220.815 310.745C219.878 310.183 219.151 309.396 218.634 308.384C218.122 307.373 217.866 306.191 217.866 304.839C217.866 303.487 218.122 302.302 218.634 301.285C219.151 300.268 219.878 299.478 220.815 298.916C221.753 298.353 222.861 298.072 224.139 298.072C225.418 298.072 226.526 298.353 227.463 298.916C228.401 299.478 229.125 300.268 229.636 301.285C230.153 302.302 230.412 303.487 230.412 304.839C230.412 306.191 230.153 307.373 229.636 308.384C229.125 309.396 228.401 310.183 227.463 310.745C226.526 311.308 225.418 311.589 224.139 311.589ZM224.156 309.117C224.849 309.117 225.429 308.927 225.895 308.546C226.361 308.16 226.707 307.643 226.935 306.995C227.168 306.348 227.284 305.626 227.284 304.83C227.284 304.029 227.168 303.305 226.935 302.657C226.707 302.004 226.361 301.484 225.895 301.098C225.429 300.711 224.849 300.518 224.156 300.518C223.446 300.518 222.855 300.711 222.384 301.098C221.918 301.484 221.568 302.004 221.335 302.657C221.108 303.305 220.994 304.029 220.994 304.83C220.994 305.626 221.108 306.348 221.335 306.995C221.568 307.643 221.918 308.16 222.384 308.546C222.855 308.927 223.446 309.117 224.156 309.117ZM233.031 298.242H236.116V312.083C236.116 313.026 235.937 313.805 235.579 314.419C235.221 315.032 234.704 315.49 234.028 315.791C233.352 316.092 232.531 316.242 231.565 316.242C231.451 316.242 231.346 316.24 231.249 316.234C231.153 316.234 231.048 316.231 230.934 316.225V313.711C231.019 313.717 231.096 313.72 231.164 313.72C231.232 313.725 231.303 313.728 231.377 313.728C231.968 313.728 232.391 313.583 232.647 313.294C232.903 313.009 233.031 312.592 233.031 312.041V298.242ZM234.565 296.384C234.07 296.384 233.647 296.223 233.295 295.899C232.948 295.569 232.775 295.174 232.775 294.714C232.775 294.248 232.948 293.853 233.295 293.529C233.647 293.2 234.07 293.035 234.565 293.035C235.053 293.035 235.471 293.2 235.817 293.529C236.17 293.853 236.346 294.248 236.346 294.714C236.346 295.174 236.17 295.569 235.817 295.899C235.471 296.223 235.053 296.384 234.565 296.384ZM245.084 311.589C243.771 311.589 242.638 311.316 241.683 310.771C240.734 310.22 240.004 309.441 239.493 308.436C238.982 307.424 238.726 306.234 238.726 304.865C238.726 303.518 238.982 302.336 239.493 301.319C240.01 300.296 240.732 299.501 241.658 298.933C242.584 298.359 243.672 298.072 244.922 298.072C245.729 298.072 246.49 298.203 247.206 298.464C247.928 298.72 248.564 299.117 249.115 299.657C249.672 300.197 250.109 300.884 250.428 301.72C250.746 302.549 250.905 303.538 250.905 304.686V305.632H240.175V303.552H247.947C247.942 302.961 247.814 302.436 247.564 301.975C247.314 301.509 246.964 301.143 246.516 300.876C246.072 300.609 245.555 300.475 244.964 300.475C244.334 300.475 243.78 300.629 243.303 300.936C242.825 301.237 242.453 301.634 242.186 302.129C241.925 302.617 241.791 303.154 241.786 303.74V305.555C241.786 306.316 241.925 306.97 242.203 307.515C242.482 308.055 242.871 308.47 243.371 308.759C243.871 309.044 244.456 309.186 245.126 309.186C245.575 309.186 245.982 309.123 246.345 308.998C246.709 308.867 247.024 308.677 247.291 308.427C247.558 308.177 247.76 307.867 247.896 307.498L250.777 307.822C250.595 308.583 250.249 309.248 249.737 309.816C249.232 310.379 248.584 310.816 247.794 311.129C247.004 311.436 246.101 311.589 245.084 311.589ZM259.225 311.589C257.918 311.589 256.796 311.302 255.859 310.728C254.927 310.154 254.208 309.362 253.702 308.35C253.202 307.333 252.952 306.163 252.952 304.839C252.952 303.509 253.208 302.336 253.719 301.319C254.231 300.296 254.952 299.501 255.884 298.933C256.822 298.359 257.93 298.072 259.208 298.072C260.271 298.072 261.211 298.268 262.029 298.66C262.853 299.046 263.509 299.595 263.998 300.305C264.487 301.009 264.765 301.833 264.833 302.776H261.884C261.765 302.146 261.481 301.62 261.032 301.2C260.589 300.774 259.995 300.561 259.251 300.561C258.62 300.561 258.066 300.731 257.589 301.072C257.112 301.407 256.739 301.89 256.472 302.521C256.211 303.151 256.08 303.907 256.08 304.788C256.08 305.68 256.211 306.447 256.472 307.089C256.734 307.725 257.1 308.217 257.572 308.563C258.049 308.904 258.609 309.075 259.251 309.075C259.705 309.075 260.112 308.99 260.469 308.819C260.833 308.643 261.137 308.39 261.381 308.061C261.626 307.731 261.793 307.33 261.884 306.859H264.833C264.759 307.785 264.487 308.606 264.015 309.322C263.543 310.032 262.901 310.589 262.089 310.992C261.276 311.39 260.322 311.589 259.225 311.589ZM273.903 298.242V300.629H266.378V298.242H273.903ZM268.236 295.106H271.321V307.396C271.321 307.811 271.384 308.129 271.509 308.35C271.639 308.566 271.81 308.714 272.02 308.794C272.23 308.873 272.463 308.913 272.719 308.913C272.912 308.913 273.088 308.899 273.247 308.87C273.412 308.842 273.537 308.816 273.622 308.794L274.142 311.205C273.977 311.262 273.741 311.325 273.435 311.393C273.134 311.461 272.764 311.501 272.327 311.512C271.554 311.535 270.858 311.419 270.239 311.163C269.619 310.901 269.128 310.498 268.764 309.953C268.406 309.407 268.23 308.725 268.236 307.907V295.106ZM286.643 301.703L283.83 302.009C283.751 301.725 283.612 301.458 283.413 301.208C283.219 300.958 282.958 300.757 282.629 300.603C282.299 300.45 281.896 300.373 281.418 300.373C280.776 300.373 280.237 300.512 279.799 300.791C279.367 301.069 279.154 301.43 279.16 301.873C279.154 302.254 279.293 302.563 279.577 302.802C279.867 303.041 280.344 303.237 281.009 303.39L283.242 303.867C284.481 304.134 285.401 304.558 286.004 305.137C286.612 305.717 286.918 306.475 286.924 307.413C286.918 308.237 286.677 308.964 286.2 309.595C285.728 310.22 285.072 310.708 284.231 311.061C283.39 311.413 282.424 311.589 281.333 311.589C279.731 311.589 278.441 311.254 277.464 310.583C276.487 309.907 275.904 308.967 275.717 307.762L278.725 307.473C278.862 308.063 279.151 308.509 279.594 308.811C280.038 309.112 280.614 309.262 281.325 309.262C282.058 309.262 282.646 309.112 283.089 308.811C283.538 308.509 283.762 308.137 283.762 307.694C283.762 307.319 283.617 307.009 283.327 306.765C283.043 306.521 282.6 306.333 281.998 306.203L279.765 305.734C278.509 305.473 277.58 305.032 276.978 304.413C276.376 303.788 276.077 302.998 276.083 302.044C276.077 301.237 276.296 300.538 276.739 299.947C277.188 299.35 277.81 298.89 278.606 298.566C279.407 298.237 280.33 298.072 281.376 298.072C282.91 298.072 284.117 298.399 284.998 299.052C285.884 299.705 286.433 300.589 286.643 301.703Z" fill="#FAF3F3"/>
<defs>
<linearGradient id="paint0_linear_28_256" x1="0" y1="0.333313" x2="480" y2="333.333" gradientUnits="userSpaceOnUse">
<stop stop-color="#211D1D"/>
<stop offset="1" stop-color="#2F2B2B"/>
</linearGradient>
</defs>
</svg>
