<svg width="24" height="25" viewBox="0 0 24 25" fill="none" xmlns="http://www.w3.org/2000/svg">
<path fill-rule="evenodd" clip-rule="evenodd" d="M12 3.5C10.1435 3.5 8.36301 4.2375 7.05025 5.55025C5.7375 6.86301 5 8.64348 5 10.5C5 13.105 6.77047 15.8616 8.74741 18.0856C9.71242 19.1713 10.6805 20.0792 11.4085 20.7162C11.6312 20.911 11.8307 21.0799 12 21.2202C12.1693 21.0799 12.3688 20.911 12.5915 20.7162C13.3195 20.0792 14.2876 19.1713 15.2526 18.0856C17.2295 15.8616 19 13.105 19 10.5C19 8.64348 18.2625 6.86301 16.9497 5.55025C15.637 4.2375 13.8565 3.5 12 3.5ZM12 22.5C11.4 23.3 11.3998 23.2998 11.3995 23.2997L11.3989 23.2992L11.397 23.2978L11.3912 23.2933L11.3709 23.278C11.3537 23.2648 11.3291 23.246 11.2976 23.2216C11.2346 23.1728 11.1441 23.1017 11.0299 23.01C10.8016 22.8265 10.4782 22.5597 10.0915 22.2213C9.31946 21.5458 8.28758 20.5787 7.25259 19.4144C5.22953 17.1384 3 13.895 3 10.5C3 8.11305 3.94821 5.82387 5.63604 4.13604C7.32387 2.44821 9.61305 1.5 12 1.5C14.3869 1.5 16.6761 2.44821 18.364 4.13604C20.0518 5.82387 21 8.11305 21 10.5C21 13.895 18.7705 17.1384 16.7474 19.4144C15.7124 20.5787 14.6805 21.5458 13.9085 22.2213C13.5218 22.5597 13.1984 22.8265 12.9701 23.01C12.8559 23.1017 12.7654 23.1728 12.7024 23.2216C12.6709 23.246 12.6463 23.2648 12.6291 23.278L12.6088 23.2933L12.603 23.2978L12.6011 23.2992L12.6005 23.2997C12.6002 23.2998 12.6 23.3 12 22.5ZM12 22.5L12.6 23.3C12.2444 23.5667 11.7556 23.5667 11.4 23.3L12 22.5Z" fill="#8D7C7C"/>
<path fill-rule="evenodd" clip-rule="evenodd" d="M12 8.5C10.8954 8.5 10 9.39543 10 10.5C10 11.6046 10.8954 12.5 12 12.5C13.1046 12.5 14 11.6046 14 10.5C14 9.39543 13.1046 8.5 12 8.5ZM8 10.5C8 8.29086 9.79086 6.5 12 6.5C14.2091 6.5 16 8.29086 16 10.5C16 12.7091 14.2091 14.5 12 14.5C9.79086 14.5 8 12.7091 8 10.5Z" fill="#8D7C7C"/>
</svg>
