<svg width="24" height="25" viewBox="0 0 24 25" fill="none" xmlns="http://www.w3.org/2000/svg">
<path fill-rule="evenodd" clip-rule="evenodd" d="M4 5.5C3.44772 5.5 3 5.94772 3 6.5V18.5C3 19.0523 3.44772 19.5 4 19.5H20C20.5523 19.5 21 19.0523 21 18.5V6.5C21 5.94772 20.5523 5.5 20 5.5H4ZM1 6.5C1 4.84315 2.34315 3.5 4 3.5H20C21.6569 3.5 23 4.84315 23 6.5V18.5C23 20.1569 21.6569 21.5 20 21.5H4C2.34315 21.5 1 20.1569 1 18.5V6.5Z" fill="#8D7C7C"/>
<path fill-rule="evenodd" clip-rule="evenodd" d="M1.15612 6.96368C1.45232 6.49754 2.07032 6.35979 2.53645 6.65599L11.5033 12.354C11.6524 12.4468 11.8245 12.496 12.0001 12.496C12.1758 12.496 12.3479 12.4468 12.497 12.354C12.4977 12.3535 12.4985 12.3531 12.4992 12.3526L21.4638 6.65599C21.9299 6.35979 22.5479 6.49754 22.8441 6.96368C23.1403 7.42981 23.0026 8.04781 22.5365 8.34401L13.5611 14.0474C13.0932 14.3406 12.5522 14.496 12.0001 14.496C11.448 14.496 10.9071 14.3406 10.4392 14.0474L10.4338 14.044L1.4638 8.34401C0.997665 8.04781 0.859911 7.42981 1.15612 6.96368Z" fill="#8D7C7C"/>
</svg>
