<svg width="24" height="25" viewBox="0 0 24 25" fill="none" xmlns="http://www.w3.org/2000/svg">
<path fill-rule="evenodd" clip-rule="evenodd" d="M7.78166 3.74172C7.59767 3.5835 7.36243 3.49757 7.11978 3.49996C7.11649 3.49999 7.11321 3.50001 7.10993 3.50001H4.11047C3.97178 3.50019 3.83464 3.52923 3.70777 3.58527C3.58078 3.64136 3.46686 3.72328 3.37326 3.82582C3.27966 3.92835 3.20844 4.04925 3.16413 4.18082C3.12051 4.3103 3.10391 4.44733 3.1153 4.58344C3.42805 7.515 4.42624 10.3319 6.02921 12.8063C6.0308 12.8088 6.03238 12.8112 6.03395 12.8137C7.49055 15.1059 9.43399 17.0494 11.7263 18.506C11.7279 18.507 11.7295 18.508 11.731 18.5091L11.734 18.511C14.1969 20.1081 16.9996 21.106 19.9175 21.4247C20.0537 21.436 20.1908 21.4192 20.3203 21.3754C20.4522 21.3308 20.5734 21.2591 20.676 21.165C20.7786 21.0709 20.8604 20.9563 20.9162 20.8287C20.972 20.7011 21.0005 20.5633 20.9999 20.4241C20.9999 20.4227 20.9999 20.4214 20.9999 20.42V17.42C20.9999 17.4117 21 17.4035 21.0002 17.3952C21.0063 17.15 20.9221 16.9111 20.7635 16.7239C20.6057 16.5377 20.3853 16.4157 20.1439 16.3807C19.1109 16.2441 18.0966 15.9912 17.1203 15.6269L17.1181 15.6261C16.9391 15.5588 16.7446 15.5442 16.5576 15.5841C16.3714 15.6238 16.2004 15.7159 16.0647 15.8494C16.0642 15.85 16.0636 15.8505 16.0631 15.8511L14.797 17.1171C14.4787 17.4354 13.987 17.5018 13.5956 17.2793C10.9356 15.7668 8.73317 13.5643 7.22064 10.9043C6.99813 10.513 7.06451 10.0212 7.38283 9.7029L8.65054 8.43519C8.78407 8.29951 8.87612 8.12852 8.91583 7.94231C8.95571 7.75532 8.94115 7.56083 8.87388 7.38187L8.87304 7.37961C8.50876 6.4034 8.25589 5.38918 8.11924 4.35623C8.08457 4.11741 7.96469 3.89913 7.78166 3.74172ZM7.10551 1.50001C7.83155 1.49417 8.53515 1.75185 9.08573 2.22535C9.63769 2.70003 9.99821 3.35922 10.1001 4.08005C10.1005 4.08312 10.1009 4.08618 10.1013 4.08925C10.2181 4.97425 10.4345 5.84321 10.7465 6.67956C10.9479 7.21606 10.9914 7.79901 10.8718 8.35946C10.7522 8.92041 10.4743 9.43531 10.071 9.84314C10.0697 9.84447 10.0684 9.84579 10.067 9.84711L9.34995 10.5642C10.5258 12.4089 12.0911 13.9741 13.9357 15.15L14.6528 14.4329C14.6541 14.4316 14.6555 14.4303 14.6568 14.429C15.0646 14.0257 15.5795 13.7477 16.1405 13.6281C16.701 13.5085 17.284 13.5521 17.8206 13.7535C18.6569 14.0655 19.5258 14.2819 20.4107 14.3986C20.4137 14.399 20.4167 14.3994 20.4196 14.3998C21.1483 14.5026 21.8137 14.8696 22.2894 15.4311C22.7622 15.989 23.0147 16.7003 22.9999 17.4312V20.4187C23.0013 20.8355 22.9157 21.248 22.7487 21.63C22.5813 22.0127 22.3359 22.3563 22.028 22.6387C21.7202 22.9212 21.3568 23.1362 20.961 23.27C20.5653 23.4038 20.146 23.4535 19.7299 23.4159C19.7239 23.4154 19.7179 23.4148 19.7119 23.4142C16.4808 23.0631 13.377 21.9593 10.6497 20.1915C8.11255 18.5785 5.96125 16.4272 4.34826 13.89C2.57424 11.1503 1.4702 8.03133 1.12552 4.7856C1.12497 4.78041 1.12446 4.77521 1.12399 4.77001C1.08651 4.35521 1.1358 3.93715 1.26874 3.54244C1.40168 3.14774 1.61535 2.78504 1.89614 2.47744C2.17693 2.16984 2.5187 1.92407 2.89968 1.75579C3.28066 1.58751 3.6925 1.5004 4.10899 1.50001L7.10551 1.50001Z" fill="#8D7C7C"/>
</svg>
